<?xml version="1.0" encoding="UTF-8" standalone="no"?>
<!-- Created with Inkscape (http://www.inkscape.org/) -->

<svg
   xmlns:dc="http://purl.org/dc/elements/1.1/"
   xmlns:cc="http://creativecommons.org/ns#"
   xmlns:rdf="http://www.w3.org/1999/02/22-rdf-syntax-ns#"
   xmlns:svg="http://www.w3.org/2000/svg"
   xmlns="http://www.w3.org/2000/svg"
   xmlns:sodipodi="http://sodipodi.sourceforge.net/DTD/sodipodi-0.dtd"
   xmlns:inkscape="http://www.inkscape.org/namespaces/inkscape"
   width="500"
   height="500"
   id="svg2"
   version="1.1"
   inkscape:version="0.48.2 r9819"
   inkscape:export-filename="/Users/robertshippey/Dropbox/Apps/downhamweb/TUSafariActivity/Safari@2x.png"
   inkscape:export-xdpi="15.48"
   inkscape:export-ydpi="15.48"
   sodipodi:docname="New document 1">
  <defs
     id="defs4" />
  <sodipodi:namedview
     id="base"
     pagecolor="#ffffff"
     bordercolor="#666666"
     borderopacity="1.0"
     inkscape:pageopacity="0.0"
     inkscape:pageshadow="2"
     inkscape:zoom="0.93"
     inkscape:cx="250"
     inkscape:cy="250"
     inkscape:document-units="px"
     inkscape:current-layer="layer1"
     showgrid="false"
     inkscape:window-width="1282"
     inkscape:window-height="683"
     inkscape:window-x="0"
     inkscape:window-y="0"
     inkscape:window-maximized="0" />
  <metadata
     id="metadata7">
    <rdf:RDF>
      <cc:Work
         rdf:about="">
        <dc:format>image/svg+xml</dc:format>
        <dc:type
           rdf:resource="http://purl.org/dc/dcmitype/StillImage" />
        <dc:title></dc:title>
      </cc:Work>
    </rdf:RDF>
  </metadata>
  <g
     inkscape:label="Layer 1"
     inkscape:groupmode="layer"
     id="layer1"
     transform="translate(0,-552.36218)">
    <g
       transform="matrix(0.18185898,0.98332462,-0.98332462,0.18185898,993.51775,410.61425)"
       id="g4473">
      <path
         inkscape:connector-curvature="0"
         id="path4475"
         d="m 245.45455,1038.7258 0,-13.6363 4.54545,0 4.54545,0 0,13.6363 0,13.6364 -4.54545,0 -4.54545,0 z"
         style="fill:#000000" />
      <path
         inkscape:connector-curvature="0"
         id="path4477"
         d="m 0,802.36218 0,-4.54545 13.636364,0 13.636363,0 0,4.54545 0,4.54545 -13.636363,0 -13.636364,0 z"
         style="fill:#000000" />
      <path
         inkscape:connector-curvature="0"
         id="path4479"
         d="m 472.72727,802.36218 0,-4.54545 13.63637,0 13.63636,0 0,4.54545 0,4.54545 -13.63636,0 -13.63637,0 z"
         style="fill:#000000" />
      <path
         inkscape:connector-curvature="0"
         id="path4481"
         d="m 245.45455,565.99854 0,-13.63636 4.54545,0 4.54545,0 0,13.63636 0,13.63637 -4.54545,0 -4.54545,0 z"
         style="fill:#000000" />
    </g>
    <g
       id="g4463"
       transform="matrix(0.35086003,0.93642791,-0.93642791,0.35086003,913.63934,286.73838)">
      <path
         style="fill:#000000"
         d="m 245.45455,1038.7258 0,-13.6363 4.54545,0 4.54545,0 0,13.6363 0,13.6364 -4.54545,0 -4.54545,0 z"
         id="path4465"
         inkscape:connector-curvature="0" />
      <path
         style="fill:#000000"
         d="m 0,802.36218 0,-4.54545 13.636364,0 13.636363,0 0,4.54545 0,4.54545 -13.636363,0 -13.636364,0 z"
         id="path4467"
         inkscape:connector-curvature="0" />
      <path
         style="fill:#000000"
         d="m 472.72727,802.36218 0,-4.54545 13.63637,0 13.63636,0 0,4.54545 0,4.54545 -13.63636,0 -13.63637,0 z"
         id="path4469"
         inkscape:connector-curvature="0" />
      <path
         style="fill:#000000"
         d="m 245.45455,565.99854 0,-13.63636 4.54545,0 4.54545,0 0,13.63636 0,13.63637 -4.54545,0 -4.54545,0 z"
         id="path4471"
         inkscape:connector-curvature="0" />
    </g>
    <g
       transform="matrix(0.50402159,0.86369105,-0.86369105,0.50402159,816.98764,182.03155)"
       id="g4453">
      <path
         inkscape:connector-curvature="0"
         id="path4455"
         d="m 245.45455,1038.7258 0,-13.6363 4.54545,0 4.54545,0 0,13.6363 0,13.6364 -4.54545,0 -4.54545,0 z"
         style="fill:#000000" />
      <path
         inkscape:connector-curvature="0"
         id="path4457"
         d="m 0,802.36218 0,-4.54545 13.636364,0 13.636363,0 0,4.54545 0,4.54545 -13.636363,0 -13.636364,0 z"
         style="fill:#000000" />
      <path
         inkscape:connector-curvature="0"
         id="path4459"
         d="m 472.72727,802.36218 0,-4.54545 13.63637,0 13.63636,0 0,4.54545 0,4.54545 -13.63636,0 -13.63637,0 z"
         style="fill:#000000" />
      <path
         inkscape:connector-curvature="0"
         id="path4461"
         d="m 245.45455,565.99854 0,-13.63636 4.54545,0 4.54545,0 0,13.63636 0,13.63637 -4.54545,0 -4.54545,0 z"
         style="fill:#000000" />
    </g>
    <g
       id="g4443"
       transform="matrix(0.64200208,0.76670289,-0.76670289,0.64200208,704.67289,95.568266)">
      <path
         style="fill:#000000"
         d="m 245.45455,1038.7258 0,-13.6363 4.54545,0 4.54545,0 0,13.6363 0,13.6364 -4.54545,0 -4.54545,0 z"
         id="path4445"
         inkscape:connector-curvature="0" />
      <path
         style="fill:#000000"
         d="m 0,802.36218 0,-4.54545 13.636364,0 13.636363,0 0,4.54545 0,4.54545 -13.636363,0 -13.636364,0 z"
         id="path4447"
         inkscape:connector-curvature="0" />
      <path
         style="fill:#000000"
         d="m 472.72727,802.36218 0,-4.54545 13.63637,0 13.63636,0 0,4.54545 0,4.54545 -13.63636,0 -13.63637,0 z"
         id="path4449"
         inkscape:connector-curvature="0" />
      <path
         style="fill:#000000"
         d="m 245.45455,565.99854 0,-13.63636 4.54545,0 4.54545,0 0,13.63636 0,13.63637 -4.54545,0 -4.54545,0 z"
         id="path4451"
         inkscape:connector-curvature="0" />
    </g>
    <g
       transform="matrix(0.76768819,0.64082357,-0.64082357,0.76768819,572.25055,26.192319)"
       id="g4433">
      <path
         inkscape:connector-curvature="0"
         id="path4435"
         d="m 245.45455,1038.7258 0,-13.6363 4.54545,0 4.54545,0 0,13.6363 0,13.6364 -4.54545,0 -4.54545,0 z"
         style="fill:#000000" />
      <path
         inkscape:connector-curvature="0"
         id="path4437"
         d="m 0,802.36218 0,-4.54545 13.636364,0 13.636363,0 0,4.54545 0,4.54545 -13.636363,0 -13.636364,0 z"
         style="fill:#000000" />
      <path
         inkscape:connector-curvature="0"
         id="path4439"
         d="m 472.72727,802.36218 0,-4.54545 13.63637,0 13.63636,0 0,4.54545 0,4.54545 -13.63636,0 -13.63637,0 z"
         style="fill:#000000" />
      <path
         inkscape:connector-curvature="0"
         id="path4441"
         d="m 245.45455,565.99854 0,-13.63636 4.54545,0 4.54545,0 0,13.63636 0,13.63637 -4.54545,0 -4.54545,0 z"
         style="fill:#000000" />
    </g>
    <g
       id="g4423"
       transform="matrix(0.86568011,0.50059759,-0.50059759,0.86568011,435.24055,-17.376198)">
      <path
         style="fill:#000000"
         d="m 245.45455,1038.7258 0,-13.6363 4.54545,0 4.54545,0 0,13.6363 0,13.6364 -4.54545,0 -4.54545,0 z"
         id="path4425"
         inkscape:connector-curvature="0" />
      <path
         style="fill:#000000"
         d="m 0,802.36218 0,-4.54545 13.636364,0 13.636363,0 0,4.54545 0,4.54545 -13.636363,0 -13.636364,0 z"
         id="path4427"
         inkscape:connector-curvature="0" />
      <path
         style="fill:#000000"
         d="m 472.72727,802.36218 0,-4.54545 13.63637,0 13.63636,0 0,4.54545 0,4.54545 -13.63636,0 -13.63637,0 z"
         id="path4429"
         inkscape:connector-curvature="0" />
      <path
         style="fill:#000000"
         d="m 245.45455,565.99854 0,-13.63636 4.54545,0 4.54545,0 0,13.63636 0,13.63637 -4.54545,0 -4.54545,0 z"
         id="path4431"
         inkscape:connector-curvature="0" />
    </g>
    <g
       transform="matrix(0.93705416,0.34918404,-0.34918404,0.93705416,295.90853,-36.790652)"
       id="g4413">
      <path
         inkscape:connector-curvature="0"
         id="path4415"
         d="m 245.45455,1038.7258 0,-13.6363 4.54545,0 4.54545,0 0,13.6363 0,13.6364 -4.54545,0 -4.54545,0 z"
         style="fill:#000000" />
      <path
         inkscape:connector-curvature="0"
         id="path4417"
         d="m 0,802.36218 0,-4.54545 13.636364,0 13.636363,0 0,4.54545 0,4.54545 -13.636363,0 -13.636364,0 z"
         style="fill:#000000" />
      <path
         inkscape:connector-curvature="0"
         id="path4419"
         d="m 472.72727,802.36218 0,-4.54545 13.63637,0 13.63636,0 0,4.54545 0,4.54545 -13.63636,0 -13.63637,0 z"
         style="fill:#000000" />
      <path
         inkscape:connector-curvature="0"
         id="path4421"
         d="m 245.45455,565.99854 0,-13.63636 4.54545,0 4.54545,0 0,13.63636 0,13.63637 -4.54545,0 -4.54545,0 z"
         style="fill:#000000" />
    </g>
    <g
       id="g4403"
       transform="matrix(0.98332664,0.18184807,-0.18184807,0.98332664,150.07636,-32.083944)">
      <path
         style="fill:#000000"
         d="m 245.45455,1038.7258 0,-13.6363 4.54545,0 4.54545,0 0,13.6363 0,13.6364 -4.54545,0 -4.54545,0 z"
         id="path4405"
         inkscape:connector-curvature="0" />
      <path
         style="fill:#000000"
         d="m 0,802.36218 0,-4.54545 13.636364,0 13.636363,0 0,4.54545 0,4.54545 -13.636363,0 -13.636364,0 z"
         id="path4407"
         inkscape:connector-curvature="0" />
      <path
         style="fill:#000000"
         d="m 472.72727,802.36218 0,-4.54545 13.63637,0 13.63636,0 0,4.54545 0,4.54545 -13.63636,0 -13.63637,0 z"
         id="path4409"
         inkscape:connector-curvature="0" />
      <path
         style="fill:#000000"
         d="m 245.45455,565.99854 0,-13.63636 4.54545,0 4.54545,0 0,13.63636 0,13.63637 -4.54545,0 -4.54545,0 z"
         id="path4411"
         inkscape:connector-curvature="0" />
    </g>
    <path
       style="fill:#000000"
       d="M 227.12004,777.99882 C 300.58419,723.74388 367.20314,667.43683 431.64621,620.82715 376.12199,694.36703 319.08949,767.58857 274.32825,825.54318"
       id="path4395"
       inkscape:connector-curvature="0" />
    <path
       style="fill:#000000;fill-opacity:0.62745098"
       d="M 274.32825,825.54318 C 207.60026,876.56771 141.56584,928.50358 74.716091,979.36882 119.56365,913.68169 183.41691,834.88815 227.12004,777.99882"
       id="path4377"
       inkscape:connector-curvature="0" />
    <g
       id="g4397">
      <path
         id="path4391"
         d="m 245.45455,1038.7258 0,-13.6363 4.54545,0 4.54545,0 0,13.6363 0,13.6364 -4.54545,0 -4.54545,0 z"
         style="fill:#000000" />
      <path
         id="path4355"
         d="m 0,802.36218 0,-4.54545 13.636364,0 13.636363,0 0,4.54545 0,4.54545 -13.636363,0 -13.636364,0 z"
         style="fill:#000000" />
      <path
         id="path4353"
         d="m 472.72727,802.36218 0,-4.54545 13.63637,0 13.63636,0 0,4.54545 0,4.54545 -13.63636,0 -13.63637,0 z"
         style="fill:#000000" />
      <path
         id="path4317"
         d="m 245.45455,565.99854 0,-13.63636 4.54545,0 4.54545,0 0,13.63636 0,13.63637 -4.54545,0 -4.54545,0 z"
         style="fill:#000000" />
    </g>
  </g>
</svg>
